<?xml version="1.0" standalone="no"?>
<!DOCTYPE svg PUBLIC "-//W3C//DTD SVG 20010904//EN"
 "http://www.w3.org/TR/2001/REC-SVG-20010904/DTD/svg10.dtd">
<svg version="1.0" xmlns="http://www.w3.org/2000/svg"
 width="1573.000000pt" height="1573.000000pt" viewBox="0 0 1573.000000 1573.000000"
 preserveAspectRatio="xMidYMid meet">
<metadata>
Created by potrace 1.14, written by Peter Selinger 2001-2017
</metadata>
<g transform="translate(0.000000,1573.000000) scale(0.100000,-0.100000)"
fill="#000000" stroke="none">
<path d="M7748 11752 c-1 -4 -88 -84 -193 -177 -104 -93 -213 -189 -240 -214
-28 -25 -84 -75 -124 -111 -41 -36 -79 -69 -85 -75 -6 -5 -49 -43 -96 -84 -47
-41 -92 -82 -100 -90 -8 -9 -28 -27 -45 -39 -16 -13 -50 -42 -75 -65 -25 -23
-81 -74 -125 -112 -44 -39 -85 -74 -91 -80 -6 -5 -41 -37 -79 -70 -37 -33 -78
-69 -89 -80 -12 -11 -55 -49 -96 -85 -41 -36 -77 -67 -80 -70 -3 -3 -63 -57
-135 -120 -71 -63 -135 -119 -141 -125 -12 -11 -33 -30 -159 -140 -43 -38 -86
-77 -95 -85 -9 -8 -50 -44 -90 -80 -41 -36 -95 -83 -120 -105 -25 -22 -47 -42
-50 -45 -3 -3 -63 -57 -135 -120 -142 -125 -185 -163 -224 -199 -14 -13 -50
-44 -80 -70 -30 -25 -59 -51 -65 -57 -6 -5 -76 -68 -156 -138 -80 -71 -166
-147 -191 -170 -25 -22 -74 -66 -109 -96 -35 -30 -75 -66 -89 -79 -24 -21 -76
-68 -221 -195 -30 -27 -71 -63 -90 -80 -19 -17 -75 -67 -125 -110 -49 -44 -95
-84 -101 -90 -6 -6 -42 -38 -80 -71 -114 -101 -269 -238 -274 -244 -3 -3 -23
-21 -45 -40 -22 -19 -71 -62 -110 -96 -38 -34 -216 -192 -395 -350 -428 -378
-448 -397 -474 -420 -13 -11 -40 -36 -62 -55 -22 -19 -73 -64 -114 -100 -41
-36 -77 -67 -80 -70 -3 -3 -45 -41 -95 -85 -49 -43 -92 -81 -95 -85 -3 -3 -41
-37 -85 -75 -44 -39 -82 -72 -85 -75 -3 -3 -41 -36 -85 -75 -44 -38 -82 -72
-85 -75 -3 -3 -43 -39 -90 -80 -47 -41 -87 -77 -90 -80 -3 -3 -41 -37 -85 -75
-44 -39 -85 -74 -91 -80 -6 -5 -44 -39 -84 -75 -40 -36 -78 -70 -84 -75 -6 -6
-47 -42 -91 -80 -44 -39 -93 -82 -110 -97 -16 -16 -76 -67 -131 -115 -56 -49
-106 -95 -111 -103 -8 -12 9 -37 81 -116 50 -55 118 -131 152 -170 33 -38 137
-155 230 -260 93 -104 190 -214 216 -243 l47 -54 39 34 c22 19 132 115 243
214 196 173 246 217 293 260 12 11 53 47 91 80 37 33 73 65 79 71 6 5 94 83
196 173 102 90 219 194 260 231 41 37 93 82 115 101 22 19 42 37 45 40 3 3 28
25 55 49 28 24 84 73 125 110 74 66 206 183 350 310 40 36 84 74 96 85 48 43
167 149 339 301 99 87 195 172 214 189 19 16 39 35 45 40 19 16 97 86 176 156
67 58 345 305 532 471 37 33 76 68 86 77 11 9 52 45 92 81 41 36 91 81 113
100 23 19 48 42 57 50 8 8 87 78 175 155 88 77 167 147 175 155 9 8 50 44 91
80 108 95 163 144 169 150 3 3 38 35 79 70 41 36 82 72 91 80 56 52 114 103
180 160 41 36 77 67 80 70 6 6 148 132 209 186 25 22 92 81 150 133 58 52 120
106 136 120 161 143 212 187 221 196 6 5 44 39 85 75 157 139 331 293 399 354
25 23 76 68 114 101 38 33 76 67 85 75 9 9 52 47 96 85 44 39 91 80 105 93 29
25 37 27 54 10 7 -7 46 -42 86 -78 40 -36 78 -69 84 -75 6 -5 50 -44 96 -85
47 -41 90 -79 96 -85 6 -5 42 -37 80 -71 295 -261 494 -437 518 -459 6 -6 108
-95 226 -200 118 -104 217 -192 220 -195 3 -3 39 -34 80 -70 41 -35 82 -71 90
-80 8 -8 71 -64 140 -125 69 -60 141 -124 160 -141 19 -17 100 -89 180 -159
80 -70 163 -144 185 -164 22 -20 78 -70 125 -111 47 -41 101 -89 120 -106 19
-17 121 -107 225 -199 105 -93 226 -200 270 -239 43 -39 100 -89 124 -111 25
-22 51 -44 57 -50 16 -15 144 -127 168 -148 12 -10 39 -35 61 -55 22 -20 74
-66 115 -102 41 -36 77 -67 80 -70 3 -3 64 -57 135 -120 72 -63 135 -119 141
-125 6 -5 42 -37 80 -71 207 -183 440 -390 450 -399 6 -5 42 -37 80 -70 84
-74 347 -307 354 -315 3 -3 39 -34 80 -70 96 -83 149 -130 175 -155 12 -11 39
-35 61 -54 21 -18 73 -64 114 -101 41 -37 161 -143 265 -235 105 -92 222 -195
260 -230 39 -34 113 -99 165 -146 52 -46 97 -86 100 -89 3 -3 58 -52 123 -109
l118 -104 31 34 c73 82 99 111 203 229 60 69 124 141 141 160 17 19 89 100
160 180 70 80 145 163 166 185 21 22 37 42 37 45 0 3 -24 25 -53 50 -51 44
-156 137 -266 235 -76 68 -204 181 -259 230 -26 22 -48 42 -51 45 -3 3 -39 34
-80 70 -41 36 -81 72 -90 80 -9 8 -49 44 -90 80 -40 36 -78 70 -84 75 -6 6
-49 44 -96 85 -47 41 -87 77 -90 80 -3 3 -41 36 -85 75 -44 38 -82 72 -85 75
-3 3 -41 37 -85 75 -44 39 -84 75 -90 81 -8 8 -114 101 -278 244 -16 14 -41
36 -56 50 -15 14 -60 54 -101 90 -41 36 -86 76 -101 90 -15 14 -55 50 -90 80
-35 30 -91 79 -124 109 -94 85 -119 107 -300 265 -93 82 -182 161 -196 175
-15 14 -39 37 -55 50 -44 36 -177 153 -195 171 -8 8 -44 40 -79 70 -35 30 -68
60 -74 65 -6 6 -72 64 -146 130 -74 65 -151 133 -170 151 -19 17 -82 73 -140
124 -58 51 -121 107 -140 124 -19 17 -73 65 -120 106 -47 41 -87 77 -90 80 -3
3 -36 32 -75 65 -38 33 -86 76 -106 95 -20 19 -50 46 -65 59 -54 45 -179 155
-189 165 -5 6 -44 40 -85 76 -94 82 -140 122 -154 136 -6 6 -54 48 -106 94
-52 46 -97 86 -100 89 -3 3 -39 35 -80 71 -41 36 -80 70 -86 75 -6 6 -44 39
-84 75 -40 36 -78 70 -84 75 -6 6 -45 39 -86 75 -41 36 -77 68 -80 71 -3 3
-30 27 -60 54 -30 26 -86 76 -125 110 -207 184 -369 327 -435 385 -40 36 -78
70 -84 75 -6 6 -67 60 -136 120 -107 94 -159 141 -214 190 -6 6 -47 42 -91 80
-44 39 -82 72 -85 76 -3 3 -108 97 -235 210 -126 112 -231 207 -233 211 -5 10
-19 10 -24 0z"/>
<path d="M2814 10825 c-2 -5 -3 -600 -2 -1322 l3 -1312 35 30 c19 17 58 52 85
77 28 26 91 83 140 127 50 44 113 101 140 127 28 25 61 56 75 68 14 12 58 52
99 88 41 37 85 77 99 89 13 13 63 58 110 100 47 43 93 85 102 93 44 39 176
157 195 175 28 26 121 111 170 155 22 20 67 60 100 90 105 95 238 215 300 270
120 108 110 91 111 178 1 42 4 280 8 527 l7 450 -887 0 c-593 0 -888 -3 -890
-10z"/>
<path d="M6415 7729 c-22 -4 -53 -10 -70 -12 -72 -14 -93 -20 -165 -49 -210
-86 -411 -286 -455 -453 -5 -16 -9 -32 -10 -35 -1 -3 -5 -30 -9 -60 -5 -30
-10 -64 -12 -75 -19 -96 -29 -1649 -12 -1840 21 -235 92 -401 228 -534 154
-149 356 -231 569 -229 170 1 292 49 401 157 37 37 75 82 84 99 9 18 18 32 20
32 2 0 21 -49 41 -110 l38 -110 259 0 258 0 0 225 c0 124 0 443 0 710 0 267 0
548 0 625 l0 140 -480 0 -480 0 0 -240 0 -240 79 0 c54 0 80 -4 83 -12 2 -7 3
-116 2 -243 -2 -337 -13 -411 -65 -461 -52 -50 -159 -40 -190 19 -33 61 -36
142 -34 1074 0 511 5 946 9 968 13 66 29 94 62 110 41 19 78 19 119 -1 60 -28
67 -67 71 -399 l3 -270 412 -3 412 -2 -6 217 c-3 120 -8 227 -11 239 -2 12 -7
45 -11 75 -20 159 -78 296 -164 391 -188 207 -449 307 -795 305 -77 0 -159 -4
-181 -8z"/>
<path d="M8660 7730 c-25 -4 -61 -10 -80 -14 -67 -11 -145 -36 -240 -79 -206
-93 -376 -296 -425 -510 -26 -115 -30 -239 -30 -992 0 -646 6 -931 19 -954 2
-3 6 -28 10 -56 36 -308 199 -510 496 -617 69 -24 74 -26 195 -48 77 -14 139
-17 270 -15 94 1 180 5 191 8 12 3 38 8 59 11 113 18 252 81 385 174 37 26
144 133 169 169 58 85 99 201 115 328 3 22 8 56 11 75 13 94 26 530 17 558 -3
9 -95 12 -412 12 l-408 0 -1 -272 c-2 -389 -11 -462 -63 -501 -37 -28 -107
-33 -153 -11 -44 21 -60 52 -73 147 -13 103 -8 1870 7 1937 16 78 52 112 124
118 68 5 113 -16 132 -62 20 -48 25 -150 26 -514 l0 -322 412 2 412 3 -1 205
c-2 589 -46 787 -212 956 -132 134 -308 219 -542 259 -56 10 -361 14 -410 5z"/>
</g>
</svg>
